<svg width="141" height="48" viewBox="0 0 141 48" fill="none" xmlns="http://www.w3.org/2000/svg">
<g clip-path="url(#clip0_116_87)">
<path fill-rule="evenodd" clip-rule="evenodd" d="M21.4129 0.0968519C20.2841 0.197713 17.7617 0.728662 16.467 1.1381C14.7275 1.68817 12.1032 2.96183 10.5305 4.01926C5.33907 7.51006 1.78397 12.8317 0.457156 19.0979C0.121511 20.6832 0.0849609 21.1437 0.0849609 23.7855C0.0849609 26.4273 0.121511 26.8878 0.457156 28.4731C1.12984 31.6498 2.23568 34.3032 3.96873 36.8986C7.76531 42.5845 13.4491 46.209 20.2969 47.3109C21.7295 47.5415 25.8279 47.5427 27.2721 47.313C33.3453 46.3473 38.7779 43.1748 42.4774 38.4333C48.8916 30.2124 49.2488 18.81 43.359 10.2979C38.8508 3.78253 31.4072 -0.088548 23.603 0.0236127C22.7053 0.0365865 21.7198 0.0695092 21.4129 0.0968519ZM28.2205 0.689462C39.2875 2.89319 47.2885 12.5845 47.2885 23.7855C47.2885 32.8017 41.9958 41.144 33.8287 45.0006C25.2993 49.0282 15.3987 47.6295 8.21493 41.382C4.44597 38.1042 1.70487 33.2963 0.668503 28.1457C0.210514 25.8695 0.21149 21.6967 0.670596 19.4143C2.15226 12.0478 6.69128 6.07038 13.3273 2.74686C15.6989 1.55899 18.5539 0.711085 21.3432 0.366233C22.6489 0.204827 26.7565 0.3979 28.2205 0.689462ZM22.0407 2.03637C17.3869 2.59424 13.7644 4.01062 10.4973 6.54985C2.33055 12.8971 -0.295604 23.8473 4.11382 33.1668C7.04115 39.3535 12.6675 43.7403 19.5787 45.2248C20.7386 45.4739 21.4735 45.5306 23.645 45.5385C26.5098 45.5488 27.4272 45.4333 29.8324 44.7595C36.5891 42.8669 42.2479 37.4567 44.4875 30.7484C45.3333 28.2148 45.5369 26.8587 45.5337 23.7855C45.5312 21.4389 45.4817 20.7682 45.2224 19.5656C44.7766 17.4988 44.168 15.7808 43.2237 13.9237C42.1208 11.7547 40.9603 10.1493 39.2659 8.44877C36.1662 5.33785 32.1642 3.21447 27.8199 2.3762C26.3727 2.09691 23.1274 1.90607 22.0407 2.03637ZM24.7317 8.11145C25.0546 8.27593 25.9154 8.75484 26.6443 9.17572C27.3732 9.59661 30.0412 11.1317 32.5732 12.5869C35.1052 14.042 37.318 15.3871 37.4907 15.5759L37.8046 15.9192V23.6516V31.3839L37.4209 31.7912C37.21 32.0151 34.3693 33.7339 31.1084 35.6108C24.1876 39.5943 24.4015 39.4796 23.8908 39.4796C23.3994 39.4796 10.9922 32.3966 10.427 31.7935L10.0434 31.3839V23.7043C10.0434 19.0173 10.096 15.9263 10.1786 15.7723C10.2528 15.6333 10.6138 15.3324 10.9807 15.1035C11.6962 14.6569 22.5288 8.4125 23.2265 8.04435C23.7888 7.74763 24.0392 7.75879 24.7317 8.11145ZM17.6102 12.936L11.4359 16.5102L11.4721 23.7005L11.5082 30.8907L14.089 32.3723C15.5084 33.1873 18.2706 34.7825 20.2271 35.9175C22.1837 37.0525 23.8472 37.9829 23.924 37.985C24.0453 37.9883 27.1595 36.2112 34.3867 32.0138L36.3398 30.8795L36.3759 23.6917L36.412 16.5038L34.2834 15.2793C33.1126 14.6057 30.3295 12.9955 28.0988 11.7009C25.868 10.4061 23.9847 9.35024 23.9137 9.35443C23.8426 9.35847 21.006 10.9703 17.6102 12.936ZM27.4138 13.0185C29.3223 14.1084 29.5603 14.2882 30.0924 15.0427C30.8224 16.0779 30.9474 16.5185 30.6151 16.8857C30.2599 17.2781 29.6926 17.2315 29.2736 16.7754C29.0797 16.5644 28.5604 15.8723 28.1194 15.2374C27.6786 14.6025 26.8053 13.5392 26.1789 12.8745C25.5525 12.2098 25.1028 11.7012 25.1795 11.7441C25.2562 11.7871 26.2616 12.3606 27.4138 13.0185ZM24.3217 13.4341C27.2596 16.4111 29.2676 19.7838 30.467 23.7562C31.0306 25.6226 31.3238 27.2618 31.5485 29.7996C31.7384 31.9436 31.7763 31.8422 30.5155 32.5584L29.8529 32.9347L29.8524 31.1501C29.8517 27.9584 29.3204 25.137 28.1855 22.2994C26.8661 19 24.4824 15.6259 22.0246 13.5786C21.4963 13.1385 21.065 12.7439 21.0661 12.7018C21.0692 12.5887 22.3582 11.8762 22.5779 11.8665C22.6814 11.8617 23.4661 12.5672 24.3217 13.4341ZM20.3686 14.4307C21.57 15.4013 23.4399 17.4367 24.3682 18.7841C25.5677 20.5256 26.8607 23.2407 27.1916 24.7139C27.3058 25.2218 27.2834 25.3214 26.9884 25.6163C26.3205 26.2843 25.8879 25.9322 25.2541 24.204C23.8899 20.4843 21.4421 17.2336 18.3197 14.9955L17.7376 14.5783L18.529 14.1267C18.9642 13.8782 19.3448 13.6741 19.3746 13.6733C19.4046 13.6723 19.8519 14.0131 20.3686 14.4307ZM17.284 16.3907C19.4698 17.9643 21.4472 20.3176 22.6411 22.7659C23.9491 25.4479 24.4068 27.3748 24.5102 30.6343C24.5854 33.0058 24.487 33.9675 23.9868 35.7517L23.839 36.2786L23.1493 35.8912C22.7699 35.6781 22.4595 35.4096 22.4595 35.2945C22.4595 35.1794 22.5563 34.6206 22.6749 34.0526C22.9645 32.664 22.9581 29.6915 22.6615 27.9508C21.8996 23.4782 19.4886 19.838 15.6562 17.3741L14.3679 16.5457L14.8212 16.2732C15.0707 16.1234 15.4003 15.9193 15.5538 15.82C16.0016 15.5298 16.162 15.5828 17.284 16.3907ZM34.8655 18.88C34.858 20.1213 34.8256 20.3667 34.7059 20.0886C34.6232 19.8968 34.1881 18.9635 33.7387 18.0146C33.2895 17.0656 32.9219 16.2685 32.9219 16.243C32.9219 16.2176 33.3614 16.45 33.8985 16.7597L34.875 17.3227L34.8655 18.88ZM14.2314 18.4722C16.3308 19.7107 18.5531 21.9813 18.5531 22.8876C18.5531 23.3575 18.1385 23.6425 17.6378 23.5168C17.4555 23.471 16.8061 22.9164 16.1945 22.2843C15.5829 21.6522 14.6098 20.821 14.0319 20.4374L12.9812 19.7399L12.9772 18.7982C12.9748 18.2803 13.0214 17.8566 13.0805 17.8566C13.1397 17.8566 13.6575 18.1336 14.2314 18.4722ZM32.5045 19.426C33.5014 21.0631 34.8748 26.6798 34.875 29.1197C34.875 29.9858 34.8723 29.9916 34.3064 30.3488C33.3598 30.9463 33.3735 30.9523 33.2834 29.8989C32.9486 25.9856 32.5848 24.226 31.5357 21.4468C30.8997 19.7619 30.8733 19.5884 31.1998 19.2278C31.5803 18.8072 32.1835 18.8988 32.5045 19.426ZM13.988 22.5648C15.5708 23.8745 16.788 25.7466 17.4572 27.9008C17.7247 28.762 17.7825 29.2596 17.784 30.7136C17.785 31.6851 17.7431 32.523 17.691 32.5756C17.6388 32.628 17.2779 32.4923 16.889 32.2738L16.1818 31.8767L16.1793 30.9001C16.1735 28.7005 15.3196 26.4574 13.8284 24.7248L12.973 23.7309V22.8165C12.973 22.3136 13.0212 21.9022 13.0801 21.9022C13.139 21.9022 13.5476 22.2003 13.988 22.5648ZM20.0779 25.3393C20.6722 26.0948 21.3432 29.0438 21.3432 30.9001C21.3432 31.8316 20.9992 34.2901 20.8475 34.4416C20.7872 34.5018 19.7351 33.9781 19.4956 33.7688C19.4385 33.7188 19.448 33.0844 19.5166 32.3587C19.6707 30.7308 19.5056 28.9643 19.0398 27.2544C18.6298 25.7494 18.6191 25.5628 18.9235 25.2264C19.2528 24.8624 19.7403 24.9102 20.0779 25.3393ZM13.3867 27.0172C13.7606 27.6511 14.2962 29.278 14.4299 30.187C14.5439 30.9608 14.5185 30.9656 13.5416 30.3488L12.973 29.9899V28.2478C12.973 27.2897 12.9982 26.5058 13.0289 26.5058C13.0597 26.5058 13.2207 26.736 13.3867 27.0172ZM27.8591 28.4139C28.0696 28.7351 28.1017 29.1134 28.0883 31.1115C28.0796 32.3898 28.0303 33.5688 27.9785 33.7318C27.8836 34.0306 26.2743 35.1106 26.1337 34.9699C26.092 34.9283 26.1364 34.435 26.2321 33.8737C26.3279 33.3124 26.4024 31.9115 26.3976 30.7606C26.3879 28.3944 26.4925 28.0403 27.2023 28.0403C27.4953 28.0403 27.6851 28.1483 27.8591 28.4139Z" fill="#FDFDFD"/>
</g>
<path d="M55.5105 20.2853V5.86896H57.3488L65.4375 17.0344L64.5667 17.1698V5.86896H66.8307V20.2853H64.9924L56.9618 9.04249L57.7939 8.88768V20.2853H55.5105ZM68.9375 20.2853V9.81652H71.1241V20.2853H68.9375ZM68.9375 8.38456V5.86896H71.1241V8.38456H68.9375ZM73.0153 20.2853V9.81652H75.1052V11.9257L74.9117 11.6161C75.1439 10.9324 75.518 10.4422 76.034 10.1455C76.55 9.83587 77.1693 9.68106 77.8917 9.68106H78.5303V11.6742H77.6208C76.8984 11.6742 76.3114 11.8999 75.8599 12.3515C75.4213 12.7901 75.2019 13.4222 75.2019 14.2478V20.2853H73.0153ZM82.3989 20.2853L78.2965 9.81652H80.6767L83.8308 18.3502H82.96L86.1142 9.81652H88.5137L84.392 20.2853H82.3989ZM92.0914 20.5175C91.3819 20.5175 90.7562 20.3949 90.2144 20.1498C89.6855 19.8918 89.2727 19.5435 88.976 19.1049C88.6793 18.6534 88.5309 18.1244 88.5309 17.5181C88.5309 16.9505 88.6535 16.4409 88.8986 15.9894C89.1566 15.5379 89.55 15.1573 90.079 14.8477C90.6079 14.5381 91.2723 14.3188 92.0721 14.1898L95.71 13.5899V15.3121L92.4978 15.8733C91.9173 15.9765 91.4916 16.1636 91.2207 16.4345C90.9497 16.6925 90.8143 17.0279 90.8143 17.4407C90.8143 17.8406 90.9626 18.1696 91.2594 18.4276C91.569 18.6727 91.9624 18.7953 92.4398 18.7953C93.0332 18.7953 93.5492 18.6663 93.9878 18.4083C94.4393 18.1502 94.7876 17.8084 95.0328 17.3827C95.2779 16.944 95.4004 16.4603 95.4004 15.9314V13.2416C95.4004 12.7256 95.2069 12.3063 94.8199 11.9838C94.4458 11.6484 93.9427 11.4807 93.3105 11.4807C92.73 11.4807 92.2204 11.6355 91.7818 11.9451C91.3561 12.2418 91.04 12.6288 90.8336 13.1061L89.0147 12.1967C89.2082 11.6806 89.5242 11.2291 89.9629 10.8421C90.4015 10.4422 90.911 10.1326 91.4916 9.91327C92.085 9.69396 92.7107 9.58431 93.3686 9.58431C94.1942 9.58431 94.9231 9.73911 95.5552 10.0487C96.2003 10.3583 96.6969 10.7905 97.0452 11.3452C97.4064 11.887 97.5871 12.5192 97.5871 13.2416V20.2853H95.4972V18.3889L95.9422 18.447C95.6971 18.8727 95.3811 19.2403 94.9941 19.5499C94.6199 19.8596 94.1878 20.0982 93.6976 20.2659C93.2202 20.4336 92.6849 20.5175 92.0914 20.5175ZM99.4784 20.2853V9.81652H101.568V11.8677L101.317 11.5968C101.575 10.9389 101.988 10.4422 102.555 10.1068C103.123 9.75846 103.781 9.58431 104.529 9.58431C105.303 9.58431 105.987 9.75201 106.58 10.0874C107.174 10.4228 107.638 10.8873 107.973 11.4807C108.309 12.0741 108.476 12.7578 108.476 13.5319V20.2853H106.309V14.1124C106.309 13.5835 106.212 13.1384 106.019 12.7772C105.825 12.4031 105.548 12.1193 105.187 11.9257C104.839 11.7193 104.439 11.6161 103.987 11.6161C103.536 11.6161 103.129 11.7193 102.768 11.9257C102.42 12.1193 102.149 12.4031 101.955 12.7772C101.762 13.1513 101.665 13.5964 101.665 14.1124V20.2853H99.4784ZM113.286 20.5175C112.577 20.5175 111.951 20.3949 111.409 20.1498C110.88 19.8918 110.467 19.5435 110.171 19.1049C109.874 18.6534 109.726 18.1244 109.726 17.5181C109.726 16.9505 109.848 16.4409 110.093 15.9894C110.351 15.5379 110.745 15.1573 111.274 14.8477C111.803 14.5381 112.467 14.3188 113.267 14.1898L116.905 13.5899V15.3121L113.693 15.8733C113.112 15.9765 112.686 16.1636 112.415 16.4345C112.144 16.6925 112.009 17.0279 112.009 17.4407C112.009 17.8406 112.157 18.1696 112.454 18.4276C112.764 18.6727 113.157 18.7953 113.634 18.7953C114.228 18.7953 114.744 18.6663 115.183 18.4083C115.634 18.1502 115.982 17.8084 116.227 17.3827C116.473 16.944 116.595 16.4603 116.595 15.9314V13.2416C116.595 12.7256 116.402 12.3063 116.015 11.9838C115.641 11.6484 115.137 11.4807 114.505 11.4807C113.925 11.4807 113.415 11.6355 112.977 11.9451C112.551 12.2418 112.235 12.6288 112.028 13.1061L110.209 12.1967C110.403 11.6806 110.719 11.2291 111.158 10.8421C111.596 10.4422 112.106 10.1326 112.686 9.91327C113.28 9.69396 113.905 9.58431 114.563 9.58431C115.389 9.58431 116.118 9.73911 116.75 10.0487C117.395 10.3583 117.892 10.7905 118.24 11.3452C118.601 11.887 118.782 12.5192 118.782 13.2416V20.2853H116.692V18.3889L117.137 18.447C116.892 18.8727 116.576 19.2403 116.189 19.5499C115.815 19.8596 115.383 20.0982 114.892 20.2659C114.415 20.4336 113.88 20.5175 113.286 20.5175ZM54.2334 42.2853L59.3033 27.869H62.1285L67.1984 42.2853H64.7602L63.6572 39.0537H57.7939L56.6716 42.2853H54.2334ZM58.4518 37.0219H62.9606L60.4063 29.4751H61.0448L58.4518 37.0219ZM72.6256 42.5175C71.5807 42.5175 70.6518 42.2788 69.8391 41.8015C69.0393 41.3113 68.4007 40.6534 67.9234 39.8277C67.459 39.0021 67.2268 38.0668 67.2268 37.0219C67.2268 35.9898 67.459 35.061 67.9234 34.2354C68.3878 33.4097 69.0264 32.7647 69.8391 32.3003C70.6518 31.823 71.5807 31.5843 72.6256 31.5843C73.3351 31.5843 73.9995 31.7133 74.6187 31.9713C75.238 32.2164 75.7733 32.5583 76.2249 32.9969C76.6893 33.4355 77.0311 33.9451 77.2504 34.5256L75.3347 35.4158C75.1154 34.8739 74.7606 34.4418 74.2704 34.1193C73.7931 33.7838 73.2448 33.6161 72.6256 33.6161C72.0322 33.6161 71.4968 33.7645 71.0195 34.0612C70.5551 34.345 70.1874 34.7514 69.9165 35.2803C69.6456 35.7963 69.5101 36.3833 69.5101 37.0412C69.5101 37.6991 69.6456 38.2926 69.9165 38.8215C70.1874 39.3375 70.5551 39.7439 71.0195 40.0406C71.4968 40.3373 72.0322 40.4857 72.6256 40.4857C73.2577 40.4857 73.806 40.3244 74.2704 40.0019C74.7477 39.6665 75.1025 39.2214 75.3347 38.6667L77.2504 39.5762C77.044 40.1309 76.7086 40.634 76.2442 41.0855C75.7927 41.5241 75.2573 41.8725 74.6381 42.1305C74.0189 42.3885 73.348 42.5175 72.6256 42.5175ZM81.7626 42.5175C81.0531 42.5175 80.4274 42.3949 79.8856 42.1498C79.3567 41.8918 78.9438 41.5435 78.6471 41.1049C78.3504 40.6534 78.2021 40.1244 78.2021 39.5181C78.2021 38.9505 78.3246 38.4409 78.5697 37.9894C78.8277 37.5379 79.2212 37.1573 79.7501 36.8477C80.279 36.5381 80.9434 36.3188 81.7433 36.1898L85.3812 35.5899V37.3121L82.169 37.8733C81.5884 37.9765 81.1627 38.1636 80.8918 38.4345C80.6209 38.6925 80.4855 39.0279 80.4855 39.4407C80.4855 39.8406 80.6338 40.1696 80.9305 40.4276C81.2401 40.6727 81.6336 40.7953 82.1109 40.7953C82.7043 40.7953 83.2204 40.6663 83.659 40.4083C84.1105 40.1502 84.4588 39.8084 84.7039 39.3827C84.949 38.944 85.0716 38.4603 85.0716 37.9314V35.2416C85.0716 34.7256 84.8781 34.3063 84.4911 33.9838C84.1169 33.6484 83.6138 33.4807 82.9817 33.4807C82.4012 33.4807 81.8916 33.6355 81.453 33.9451C81.0273 34.2418 80.7112 34.6288 80.5048 35.1061L78.6858 34.1967C78.8793 33.6806 79.1954 33.2291 79.634 32.8421C80.0726 32.4422 80.5822 32.1326 81.1627 31.9133C81.7562 31.694 82.3818 31.5843 83.0398 31.5843C83.8654 31.5843 84.5943 31.7391 85.2264 32.0487C85.8714 32.3583 86.3681 32.7905 86.7164 33.3452C87.0776 33.887 87.2582 34.5192 87.2582 35.2416V42.2853H85.1683V40.3889L85.6134 40.447C85.3683 40.8727 85.0522 41.2403 84.6652 41.5499C84.2911 41.8596 83.8589 42.0982 83.3687 42.2659C82.8914 42.4336 82.356 42.5175 81.7626 42.5175ZM93.9873 42.5175C92.981 42.5175 92.078 42.2788 91.2781 41.8015C90.4912 41.3113 89.8655 40.6534 89.4011 39.8277C88.9496 39.0021 88.7238 38.0733 88.7238 37.0412C88.7238 36.0092 88.9561 35.0803 89.4205 34.2547C89.8849 33.4291 90.5106 32.7776 91.2975 32.3003C92.0844 31.823 92.9746 31.5843 93.9679 31.5843C94.8064 31.5843 95.5482 31.752 96.1932 32.0874C96.8383 32.4228 97.3478 32.8873 97.7219 33.4807L97.393 33.9838V27.6368H99.5603V42.2853H97.4897V40.1567L97.7413 40.5631C97.3801 41.1952 96.8641 41.679 96.1932 42.0144C95.5224 42.3498 94.7871 42.5175 93.9873 42.5175ZM94.2001 40.4857C94.8064 40.4857 95.3483 40.3373 95.8256 40.0406C96.3158 39.7439 96.6964 39.3375 96.9673 38.8215C97.2511 38.2926 97.393 37.6991 97.393 37.0412C97.393 36.3833 97.2511 35.7963 96.9673 35.2803C96.6964 34.7643 96.3158 34.3579 95.8256 34.0612C95.3483 33.7645 94.8064 33.6161 94.2001 33.6161C93.5938 33.6161 93.0455 33.7645 92.5553 34.0612C92.0651 34.3579 91.6845 34.7643 91.4136 35.2803C91.1427 35.7963 91.0072 36.3833 91.0072 37.0412C91.0072 37.6991 91.1427 38.2926 91.4136 38.8215C91.6845 39.3375 92.0586 39.7439 92.5359 40.0406C93.0262 40.3373 93.5809 40.4857 94.2001 40.4857ZM106.363 42.5175C105.318 42.5175 104.389 42.2788 103.576 41.8015C102.776 41.3113 102.151 40.6534 101.699 39.8277C101.248 38.9892 101.022 38.0539 101.022 37.0219C101.022 35.964 101.248 35.0287 101.699 34.216C102.164 33.4033 102.783 32.7647 103.557 32.3003C104.331 31.823 105.208 31.5843 106.189 31.5843C106.976 31.5843 107.679 31.7198 108.298 31.9907C108.917 32.2616 109.44 32.6357 109.865 33.113C110.291 33.5774 110.613 34.1128 110.833 34.7191C111.065 35.3255 111.181 35.9705 111.181 36.6542C111.181 36.8219 111.175 36.9961 111.162 37.1767C111.149 37.3573 111.123 37.525 111.084 37.6798H102.744V35.9382H109.846L108.801 36.7316C108.93 36.0995 108.885 35.5383 108.666 35.0481C108.459 34.545 108.137 34.1515 107.698 33.8677C107.272 33.571 106.769 33.4226 106.189 33.4226C105.608 33.4226 105.092 33.571 104.641 33.8677C104.189 34.1515 103.841 34.5643 103.596 35.1061C103.351 35.6351 103.254 36.2801 103.305 37.0412C103.241 37.7508 103.338 38.37 103.596 38.8989C103.867 39.4278 104.241 39.8406 104.718 40.1373C105.208 40.4341 105.763 40.5824 106.382 40.5824C107.014 40.5824 107.55 40.4405 107.988 40.1567C108.44 39.8729 108.795 39.5052 109.053 39.0537L110.833 39.9245C110.626 40.4147 110.304 40.8598 109.865 41.2597C109.44 41.6467 108.924 41.9563 108.317 42.1885C107.724 42.4078 107.072 42.5175 106.363 42.5175ZM112.65 42.2853V31.8165H114.74V34.0806L114.469 33.7322C114.688 33.0227 115.088 32.4873 115.668 32.1261C116.249 31.7649 116.913 31.5843 117.662 31.5843C118.5 31.5843 119.242 31.8101 119.887 32.2616C120.545 32.7002 120.983 33.2872 121.203 34.0225L120.584 34.0806C120.893 33.242 121.364 32.6163 121.996 32.2035C122.641 31.7907 123.377 31.5843 124.202 31.5843C124.925 31.5843 125.576 31.752 126.157 32.0874C126.75 32.4228 127.221 32.8873 127.569 33.4807C127.918 34.0741 128.092 34.7514 128.092 35.5125V42.2853H125.905V36.1124C125.905 35.5835 125.808 35.1384 125.615 34.7772C125.434 34.4031 125.176 34.1193 124.841 33.9257C124.518 33.7193 124.138 33.6161 123.699 33.6161C123.26 33.6161 122.873 33.7193 122.538 33.9257C122.203 34.1193 121.938 34.4031 121.745 34.7772C121.551 35.1513 121.454 35.5964 121.454 36.1124V42.2853H119.287V36.1124C119.287 35.5835 119.19 35.1384 118.997 34.7772C118.816 34.4031 118.558 34.1193 118.223 33.9257C117.9 33.7193 117.513 33.6161 117.062 33.6161C116.623 33.6161 116.236 33.7193 115.901 33.9257C115.565 34.1193 115.301 34.4031 115.107 34.7772C114.927 35.1513 114.836 35.5964 114.836 36.1124V42.2853H112.65ZM130.507 46.5424C130.249 46.5424 129.991 46.5166 129.733 46.465C129.487 46.4263 129.262 46.3618 129.055 46.2715V44.3945C129.21 44.4332 129.397 44.4655 129.616 44.4913C129.836 44.53 130.049 44.5493 130.255 44.5493C130.861 44.5493 131.306 44.4139 131.59 44.143C131.887 43.8849 132.151 43.485 132.384 42.9432L133.08 41.3564L133.041 43.1948L128.513 31.8165H130.855L134.203 40.5437H133.409L136.737 31.8165H139.098L134.473 43.427C134.228 44.0462 133.919 44.588 133.545 45.0524C133.183 45.5298 132.751 45.8974 132.248 46.1554C131.758 46.4134 131.177 46.5424 130.507 46.5424Z" fill="#FDFDFD"/>
<defs>
<clipPath id="clip0_116_87">
<rect width="47.5706" height="47.5706" fill="white"/>
</clipPath>
</defs>
</svg>
